<mxfile host="app.diagrams.net" agent="Mozilla/5.0 (Windows NT 10.0; Win64; x64; rv:133.0) Gecko/20100101 Firefox/133.0" version="24.9.0">
  <diagram name="Page-1" id="4VB93-e-1aO3fsahMGRl">
    <mxGraphModel dx="2250" dy="743" grid="1" gridSize="10" guides="1" tooltips="1" connect="1" arrows="1" fold="1" page="1" pageScale="1" pageWidth="850" pageHeight="1100" math="0" shadow="0">
      <root>
        <mxCell id="0" />
        <mxCell id="1" parent="0" />
        <mxCell id="sPuBu1B0uV8ggdlzg5T8-1" value="" style="rounded=0;whiteSpace=wrap;html=1;fillColor=#000000;gradientColor=#000000;fillStyle=auto;" vertex="1" parent="1">
          <mxGeometry x="-400" y="60" width="1110" height="720" as="geometry" />
        </mxCell>
        <mxCell id="sPuBu1B0uV8ggdlzg5T8-2" value="" style="rounded=1;whiteSpace=wrap;html=1;fillColor=#000000;strokeColor=#FFFFFF;shadow=0;glass=0;arcSize=9;" vertex="1" parent="1">
          <mxGeometry x="-370" y="80" width="1060" height="650" as="geometry" />
        </mxCell>
        <mxCell id="sPuBu1B0uV8ggdlzg5T8-42" value="OUTPUT" style="rounded=1;whiteSpace=wrap;html=1;strokeWidth=2;fillWeight=4;hachureGap=8;hachureAngle=45;fillColor=#000000;strokeColor=#FFFFFF;fontColor=#FFFFFF;verticalAlign=top;arcSize=7;" vertex="1" parent="1">
          <mxGeometry x="397" y="311.69" width="260" height="400" as="geometry" />
        </mxCell>
        <mxCell id="sPuBu1B0uV8ggdlzg5T8-40" value="INPUT" style="rounded=1;whiteSpace=wrap;html=1;strokeWidth=2;fillWeight=4;hachureGap=8;hachureAngle=45;fillColor=#000000;strokeColor=#FFFFFF;fontColor=#FFFFFF;verticalAlign=top;" vertex="1" parent="1">
          <mxGeometry x="-317" y="310" width="227" height="400" as="geometry" />
        </mxCell>
        <mxCell id="sPuBu1B0uV8ggdlzg5T8-5" value="CUSTOMER" style="rounded=1;whiteSpace=wrap;html=1;strokeWidth=2;fillWeight=4;hachureGap=8;hachureAngle=45;fillColor=#000000;strokeColor=#FFFFFF;fontColor=#FFFFFF;" vertex="1" parent="1">
          <mxGeometry x="542" y="340.21" width="100" height="349.79" as="geometry" />
        </mxCell>
        <mxCell id="sPuBu1B0uV8ggdlzg5T8-6" value="FOOD" style="rounded=1;whiteSpace=wrap;html=1;strokeWidth=2;fillWeight=4;hachureGap=8;hachureAngle=45;fillColor=#000000;strokeColor=#FFFFFF;fontColor=#FFFFFF;" vertex="1" parent="1">
          <mxGeometry x="414" y="340.21000000000004" width="100" height="49.79" as="geometry" />
        </mxCell>
        <mxCell id="sPuBu1B0uV8ggdlzg5T8-7" value="BEVERAGE" style="rounded=1;whiteSpace=wrap;html=1;strokeWidth=2;fillWeight=4;hachureGap=8;hachureAngle=45;fillColor=#000000;strokeColor=#FFFFFF;fontColor=#FFFFFF;" vertex="1" parent="1">
          <mxGeometry x="414" y="440" width="100" height="50" as="geometry" />
        </mxCell>
        <mxCell id="sPuBu1B0uV8ggdlzg5T8-8" value="ENTERTAINMENT" style="rounded=1;whiteSpace=wrap;html=1;strokeWidth=2;fillWeight=4;hachureGap=8;hachureAngle=45;fillColor=#000000;strokeColor=#FFFFFF;fontColor=#FFFFFF;" vertex="1" parent="1">
          <mxGeometry x="414" y="640.84" width="100" height="49.58" as="geometry" />
        </mxCell>
        <mxCell id="sPuBu1B0uV8ggdlzg5T8-9" value="EVENTS" style="rounded=1;whiteSpace=wrap;html=1;strokeWidth=2;fillWeight=4;hachureGap=8;hachureAngle=45;fillColor=#000000;strokeColor=#FFFFFF;fontColor=#FFFFFF;" vertex="1" parent="1">
          <mxGeometry x="414" y="546.8" width="100" height="51.15" as="geometry" />
        </mxCell>
        <mxCell id="sPuBu1B0uV8ggdlzg5T8-16" value="TWO-THREE HOTEL" style="rounded=1;whiteSpace=wrap;html=1;strokeWidth=2;fillWeight=4;hachureGap=8;hachureAngle=45;fillColor=#000000;strokeColor=none;fontColor=#FFFFFF;fontSize=17;" vertex="1" parent="1">
          <mxGeometry x="61.879999999999995" y="90" width="186.25" height="26.14" as="geometry" />
        </mxCell>
        <mxCell id="sPuBu1B0uV8ggdlzg5T8-18" value="FOOD SUPPLIER" style="rounded=1;whiteSpace=wrap;html=1;strokeWidth=2;fillWeight=4;hachureGap=8;hachureAngle=45;fillColor=#000000;strokeColor=#FFFFFF;fontColor=#FFFFFF;" vertex="1" parent="1">
          <mxGeometry x="-307" y="340.21000000000004" width="207" height="69.79" as="geometry" />
        </mxCell>
        <mxCell id="sPuBu1B0uV8ggdlzg5T8-19" value="EVENT LEADS" style="rounded=1;whiteSpace=wrap;html=1;strokeWidth=2;fillWeight=4;hachureGap=8;hachureAngle=45;fillColor=#000000;strokeColor=#FFFFFF;fontColor=#FFFFFF;" vertex="1" parent="1">
          <mxGeometry x="-307" y="620.4200000000001" width="207" height="70" as="geometry" />
        </mxCell>
        <mxCell id="sPuBu1B0uV8ggdlzg5T8-20" value="OTHER SUPPLIERS" style="rounded=1;whiteSpace=wrap;html=1;strokeWidth=2;fillWeight=4;hachureGap=8;hachureAngle=45;fillColor=#000000;strokeColor=#FFFFFF;fontColor=#FFFFFF;" vertex="1" parent="1">
          <mxGeometry x="-307" y="531" width="207" height="70" as="geometry" />
        </mxCell>
        <mxCell id="sPuBu1B0uV8ggdlzg5T8-21" value="BEVERAGE SUPPLIER" style="rounded=1;whiteSpace=wrap;html=1;strokeWidth=2;fillWeight=4;hachureGap=8;hachureAngle=45;fillColor=#000000;strokeColor=#FFFFFF;fontColor=#FFFFFF;" vertex="1" parent="1">
          <mxGeometry x="-307" y="436" width="207" height="73" as="geometry" />
        </mxCell>
        <mxCell id="sPuBu1B0uV8ggdlzg5T8-41" value="OPERATIONS GROUP" style="rounded=1;whiteSpace=wrap;html=1;strokeWidth=2;fillWeight=4;hachureGap=8;hachureAngle=45;fillColor=#525252;strokeColor=#FFFFFF;fontColor=#FFFFFF;verticalAlign=top;arcSize=4;" vertex="1" parent="1">
          <mxGeometry x="-50" y="310" width="410" height="400" as="geometry" />
        </mxCell>
        <mxCell id="sPuBu1B0uV8ggdlzg5T8-45" value="MANAGEMENT" style="rounded=1;whiteSpace=wrap;html=1;strokeWidth=2;fillWeight=4;hachureGap=8;hachureAngle=45;fillColor=#363636;strokeColor=#FFFFFF;fontColor=#FFFFFF;arcSize=3;" vertex="1" parent="1">
          <mxGeometry x="-40" y="389.58000000000004" width="390" height="298.34" as="geometry" />
        </mxCell>
        <mxCell id="sPuBu1B0uV8ggdlzg5T8-22" value="STORAGE DISTRIBUTION" style="rounded=1;whiteSpace=wrap;html=1;strokeWidth=2;fillWeight=4;hachureGap=8;hachureAngle=45;fillColor=#000000;strokeColor=#FFFFFF;fontColor=#FFFFFF;" vertex="1" parent="1">
          <mxGeometry x="-30" y="400.79" width="100" height="199.79" as="geometry" />
        </mxCell>
        <mxCell id="sPuBu1B0uV8ggdlzg5T8-23" value="SALES TEAM" style="rounded=1;whiteSpace=wrap;html=1;strokeWidth=2;fillWeight=4;hachureGap=8;hachureAngle=45;fillColor=#000000;strokeColor=#FFFFFF;fontColor=#FFFFFF;" vertex="1" parent="1">
          <mxGeometry x="-30" y="622.21" width="100" height="52.08" as="geometry" />
        </mxCell>
        <mxCell id="sPuBu1B0uV8ggdlzg5T8-24" value="" style="endArrow=classic;html=1;rounded=0;exitX=1;exitY=0.5;exitDx=0;exitDy=0;entryX=-0.009;entryY=0.361;entryDx=0;entryDy=0;strokeColor=#FFFFFF;edgeStyle=orthogonalEdgeStyle;entryPerimeter=0;curved=1;" edge="1" parent="1" source="sPuBu1B0uV8ggdlzg5T8-18" target="sPuBu1B0uV8ggdlzg5T8-22">
          <mxGeometry width="50" height="50" relative="1" as="geometry">
            <mxPoint x="100" y="300" as="sourcePoint" />
            <mxPoint x="150" y="250" as="targetPoint" />
          </mxGeometry>
        </mxCell>
        <mxCell id="sPuBu1B0uV8ggdlzg5T8-25" value="" style="endArrow=classic;html=1;rounded=0;strokeColor=#FFFFFF;edgeStyle=orthogonalEdgeStyle;curved=1;" edge="1" parent="1" source="sPuBu1B0uV8ggdlzg5T8-21" target="sPuBu1B0uV8ggdlzg5T8-22">
          <mxGeometry width="50" height="50" relative="1" as="geometry">
            <mxPoint x="-190" y="195" as="sourcePoint" />
            <mxPoint x="-30" y="280" as="targetPoint" />
          </mxGeometry>
        </mxCell>
        <mxCell id="sPuBu1B0uV8ggdlzg5T8-26" value="" style="endArrow=classic;html=1;rounded=0;entryX=-0.014;entryY=0.646;entryDx=0;entryDy=0;strokeColor=#FFFFFF;exitX=1;exitY=0.5;exitDx=0;exitDy=0;edgeStyle=orthogonalEdgeStyle;curved=1;entryPerimeter=0;" edge="1" parent="1" source="sPuBu1B0uV8ggdlzg5T8-20" target="sPuBu1B0uV8ggdlzg5T8-22">
          <mxGeometry width="50" height="50" relative="1" as="geometry">
            <mxPoint x="-190" y="265" as="sourcePoint" />
            <mxPoint x="-140" y="266" as="targetPoint" />
          </mxGeometry>
        </mxCell>
        <mxCell id="sPuBu1B0uV8ggdlzg5T8-27" value="" style="endArrow=classic;html=1;rounded=0;strokeColor=#FFFFFF;exitX=1;exitY=0.5;exitDx=0;exitDy=0;entryX=0;entryY=0.5;entryDx=0;entryDy=0;edgeStyle=orthogonalEdgeStyle;curved=1;" edge="1" parent="1" source="sPuBu1B0uV8ggdlzg5T8-19" target="sPuBu1B0uV8ggdlzg5T8-23">
          <mxGeometry width="50" height="50" relative="1" as="geometry">
            <mxPoint x="-190" y="265" as="sourcePoint" />
            <mxPoint x="-140" y="266" as="targetPoint" />
          </mxGeometry>
        </mxCell>
        <mxCell id="sPuBu1B0uV8ggdlzg5T8-28" value="KITCHEN" style="rounded=1;whiteSpace=wrap;html=1;strokeWidth=2;fillWeight=4;hachureGap=8;hachureAngle=45;fillColor=#000000;strokeColor=#FFFFFF;fontColor=#FFFFFF;" vertex="1" parent="1">
          <mxGeometry x="100" y="401.79" width="100" height="79.79" as="geometry" />
        </mxCell>
        <mxCell id="sPuBu1B0uV8ggdlzg5T8-29" value="BAR" style="rounded=1;whiteSpace=wrap;html=1;strokeWidth=2;fillWeight=4;hachureGap=8;hachureAngle=45;fillColor=#000000;strokeColor=#FFFFFF;fontColor=#FFFFFF;" vertex="1" parent="1">
          <mxGeometry x="100" y="517.95" width="100" height="80" as="geometry" />
        </mxCell>
        <mxCell id="sPuBu1B0uV8ggdlzg5T8-30" value="FRONT-LINE STAFF" style="rounded=1;whiteSpace=wrap;html=1;strokeWidth=2;fillWeight=4;hachureGap=8;hachureAngle=45;fillColor=#000000;strokeColor=#FFFFFF;fontColor=#FFFFFF;" vertex="1" parent="1">
          <mxGeometry x="240" y="401.79" width="100" height="269.79" as="geometry" />
        </mxCell>
        <mxCell id="sPuBu1B0uV8ggdlzg5T8-31" value="EVENTS TEAM" style="rounded=1;whiteSpace=wrap;html=1;strokeWidth=2;fillWeight=4;hachureGap=8;hachureAngle=45;fillColor=#000000;strokeColor=#FFFFFF;fontColor=#FFFFFF;" vertex="1" parent="1">
          <mxGeometry x="100" y="622.21" width="100" height="52.08" as="geometry" />
        </mxCell>
        <mxCell id="sPuBu1B0uV8ggdlzg5T8-32" value="" style="endArrow=classic;html=1;rounded=0;entryX=0;entryY=0.5;entryDx=0;entryDy=0;strokeColor=#FFFFFF;exitX=1.007;exitY=0.535;exitDx=0;exitDy=0;exitPerimeter=0;edgeStyle=orthogonalEdgeStyle;curved=1;" edge="1" parent="1" source="sPuBu1B0uV8ggdlzg5T8-22" target="sPuBu1B0uV8ggdlzg5T8-29">
          <mxGeometry width="50" height="50" relative="1" as="geometry">
            <mxPoint x="-190" y="265" as="sourcePoint" />
            <mxPoint x="-150" y="266" as="targetPoint" />
          </mxGeometry>
        </mxCell>
        <mxCell id="sPuBu1B0uV8ggdlzg5T8-33" value="" style="endArrow=classic;html=1;rounded=0;entryX=0;entryY=0.5;entryDx=0;entryDy=0;strokeColor=#FFFFFF;exitX=1;exitY=0.409;exitDx=0;exitDy=0;exitPerimeter=0;edgeStyle=orthogonalEdgeStyle;curved=1;" edge="1" parent="1" source="sPuBu1B0uV8ggdlzg5T8-22" target="sPuBu1B0uV8ggdlzg5T8-28">
          <mxGeometry width="50" height="50" relative="1" as="geometry">
            <mxPoint x="-49" y="277" as="sourcePoint" />
            <mxPoint x="-20" y="325" as="targetPoint" />
          </mxGeometry>
        </mxCell>
        <mxCell id="sPuBu1B0uV8ggdlzg5T8-34" value="" style="endArrow=classic;html=1;rounded=0;entryX=0.007;entryY=0.454;entryDx=0;entryDy=0;strokeColor=#FFFFFF;exitX=1;exitY=0.5;exitDx=0;exitDy=0;edgeStyle=orthogonalEdgeStyle;curved=1;entryPerimeter=0;" edge="1" parent="1" source="sPuBu1B0uV8ggdlzg5T8-28" target="sPuBu1B0uV8ggdlzg5T8-30">
          <mxGeometry width="50" height="50" relative="1" as="geometry">
            <mxPoint x="-50" y="252" as="sourcePoint" />
            <mxPoint x="-20" y="210" as="targetPoint" />
          </mxGeometry>
        </mxCell>
        <mxCell id="sPuBu1B0uV8ggdlzg5T8-35" value="" style="endArrow=classic;html=1;rounded=0;entryX=0;entryY=0.5;entryDx=0;entryDy=0;strokeColor=#FFFFFF;exitX=1;exitY=0.5;exitDx=0;exitDy=0;edgeStyle=orthogonalEdgeStyle;curved=1;" edge="1" parent="1" source="sPuBu1B0uV8ggdlzg5T8-29" target="sPuBu1B0uV8ggdlzg5T8-30">
          <mxGeometry width="50" height="50" relative="1" as="geometry">
            <mxPoint x="80" y="210" as="sourcePoint" />
            <mxPoint x="121" y="293" as="targetPoint" />
          </mxGeometry>
        </mxCell>
        <mxCell id="sPuBu1B0uV8ggdlzg5T8-36" value="" style="endArrow=classic;html=1;rounded=0;entryX=-0.014;entryY=0.552;entryDx=0;entryDy=0;strokeColor=#FFFFFF;exitX=1;exitY=0.5;exitDx=0;exitDy=0;edgeStyle=orthogonalEdgeStyle;curved=1;entryPerimeter=0;" edge="1" parent="1" source="sPuBu1B0uV8ggdlzg5T8-31" target="sPuBu1B0uV8ggdlzg5T8-30">
          <mxGeometry width="50" height="50" relative="1" as="geometry">
            <mxPoint x="80" y="326" as="sourcePoint" />
            <mxPoint x="120" y="305" as="targetPoint" />
          </mxGeometry>
        </mxCell>
        <mxCell id="sPuBu1B0uV8ggdlzg5T8-37" value="MANAGEMENT" style="rounded=1;whiteSpace=wrap;html=1;strokeWidth=2;fillWeight=4;hachureGap=8;hachureAngle=45;fillColor=#363636;strokeColor=#FFFFFF;fontColor=#FFFFFF;" vertex="1" parent="1">
          <mxGeometry x="-40" y="339.07" width="390" height="52.08" as="geometry" />
        </mxCell>
        <mxCell id="sPuBu1B0uV8ggdlzg5T8-38" value="FINANCE" style="rounded=1;whiteSpace=wrap;html=1;strokeWidth=2;fillWeight=4;hachureGap=8;hachureAngle=45;fillColor=#000000;strokeColor=#FFFFFF;fontColor=#FFFFFF;" vertex="1" parent="1">
          <mxGeometry x="-35" y="210" width="380" height="60" as="geometry" />
        </mxCell>
        <mxCell id="sPuBu1B0uV8ggdlzg5T8-39" value="EXECUTIVES" style="rounded=1;whiteSpace=wrap;html=1;strokeWidth=2;fillWeight=4;hachureGap=8;hachureAngle=45;fillColor=#000000;strokeColor=#FFFFFF;fontColor=#FFFFFF;" vertex="1" parent="1">
          <mxGeometry x="-35" y="120" width="380" height="60" as="geometry" />
        </mxCell>
        <mxCell id="sPuBu1B0uV8ggdlzg5T8-44" value="" style="endArrow=classic;html=1;rounded=0;exitX=1;exitY=0.5;exitDx=0;exitDy=0;entryX=0;entryY=0.5;entryDx=0;entryDy=0;strokeColor=#FFFFFF;" edge="1" parent="1" source="sPuBu1B0uV8ggdlzg5T8-23" target="sPuBu1B0uV8ggdlzg5T8-31">
          <mxGeometry width="50" height="50" relative="1" as="geometry">
            <mxPoint x="40" y="340" as="sourcePoint" />
            <mxPoint x="90" y="290" as="targetPoint" />
          </mxGeometry>
        </mxCell>
        <mxCell id="sPuBu1B0uV8ggdlzg5T8-58" value="" style="endArrow=classic;html=1;rounded=0;entryX=0.269;entryY=-0.002;entryDx=0;entryDy=0;strokeColor=#FFFFFF;entryPerimeter=0;" edge="1" parent="1" target="sPuBu1B0uV8ggdlzg5T8-41">
          <mxGeometry width="50" height="50" relative="1" as="geometry">
            <mxPoint x="60" y="270" as="sourcePoint" />
            <mxPoint x="120" y="488" as="targetPoint" />
          </mxGeometry>
        </mxCell>
        <mxCell id="sPuBu1B0uV8ggdlzg5T8-60" value="" style="endArrow=classic;html=1;rounded=0;exitX=0.974;exitY=0.331;exitDx=0;exitDy=0;entryX=0;entryY=0.5;entryDx=0;entryDy=0;strokeColor=#FFFFFF;exitPerimeter=0;edgeStyle=orthogonalEdgeStyle;curved=1;" edge="1" parent="1" source="sPuBu1B0uV8ggdlzg5T8-30" target="sPuBu1B0uV8ggdlzg5T8-6">
          <mxGeometry width="50" height="50" relative="1" as="geometry">
            <mxPoint x="70" y="200" as="sourcePoint" />
            <mxPoint x="63" y="720" as="targetPoint" />
          </mxGeometry>
        </mxCell>
        <mxCell id="sPuBu1B0uV8ggdlzg5T8-61" value="" style="endArrow=classic;html=1;rounded=0;exitX=0.986;exitY=0.561;exitDx=0;exitDy=0;entryX=0;entryY=0.5;entryDx=0;entryDy=0;strokeColor=#FFFFFF;exitPerimeter=0;edgeStyle=orthogonalEdgeStyle;curved=1;" edge="1" parent="1" source="sPuBu1B0uV8ggdlzg5T8-30" target="sPuBu1B0uV8ggdlzg5T8-8">
          <mxGeometry width="50" height="50" relative="1" as="geometry">
            <mxPoint x="347" y="501" as="sourcePoint" />
            <mxPoint x="424" y="375" as="targetPoint" />
          </mxGeometry>
        </mxCell>
        <mxCell id="sPuBu1B0uV8ggdlzg5T8-62" value="" style="endArrow=classic;html=1;rounded=0;exitX=1;exitY=0.5;exitDx=0;exitDy=0;entryX=0;entryY=0.5;entryDx=0;entryDy=0;strokeColor=#FFFFFF;edgeStyle=orthogonalEdgeStyle;curved=1;" edge="1" parent="1" source="sPuBu1B0uV8ggdlzg5T8-30" target="sPuBu1B0uV8ggdlzg5T8-9">
          <mxGeometry width="50" height="50" relative="1" as="geometry">
            <mxPoint x="349" y="563" as="sourcePoint" />
            <mxPoint x="424" y="595" as="targetPoint" />
          </mxGeometry>
        </mxCell>
        <mxCell id="sPuBu1B0uV8ggdlzg5T8-63" value="" style="endArrow=classic;html=1;rounded=0;exitX=0.974;exitY=0.409;exitDx=0;exitDy=0;entryX=0;entryY=0.5;entryDx=0;entryDy=0;strokeColor=#FFFFFF;exitPerimeter=0;edgeStyle=orthogonalEdgeStyle;curved=1;" edge="1" parent="1" source="sPuBu1B0uV8ggdlzg5T8-30" target="sPuBu1B0uV8ggdlzg5T8-7">
          <mxGeometry width="50" height="50" relative="1" as="geometry">
            <mxPoint x="350" y="547" as="sourcePoint" />
            <mxPoint x="424" y="523" as="targetPoint" />
          </mxGeometry>
        </mxCell>
        <mxCell id="sPuBu1B0uV8ggdlzg5T8-64" value="" style="endArrow=classic;html=1;rounded=0;exitX=1;exitY=0.5;exitDx=0;exitDy=0;entryX=0.011;entryY=0.329;entryDx=0;entryDy=0;strokeColor=#FFFFFF;entryPerimeter=0;edgeStyle=orthogonalEdgeStyle;curved=1;" edge="1" parent="1" source="sPuBu1B0uV8ggdlzg5T8-6" target="sPuBu1B0uV8ggdlzg5T8-5">
          <mxGeometry width="50" height="50" relative="1" as="geometry">
            <mxPoint x="70" y="200" as="sourcePoint" />
            <mxPoint x="63" y="720" as="targetPoint" />
          </mxGeometry>
        </mxCell>
        <mxCell id="sPuBu1B0uV8ggdlzg5T8-65" value="" style="endArrow=classic;html=1;rounded=0;exitX=1;exitY=0.5;exitDx=0;exitDy=0;entryX=0.001;entryY=0.48;entryDx=0;entryDy=0;strokeColor=#FFFFFF;entryPerimeter=0;edgeStyle=orthogonalEdgeStyle;curved=1;" edge="1" parent="1" source="sPuBu1B0uV8ggdlzg5T8-7" target="sPuBu1B0uV8ggdlzg5T8-5">
          <mxGeometry width="50" height="50" relative="1" as="geometry">
            <mxPoint x="524" y="375" as="sourcePoint" />
            <mxPoint x="560" y="430" as="targetPoint" />
          </mxGeometry>
        </mxCell>
        <mxCell id="sPuBu1B0uV8ggdlzg5T8-66" value="" style="endArrow=classic;html=1;rounded=0;exitX=1;exitY=0.5;exitDx=0;exitDy=0;strokeColor=#FFFFFF;entryX=0.002;entryY=0.602;entryDx=0;entryDy=0;entryPerimeter=0;edgeStyle=orthogonalEdgeStyle;curved=1;" edge="1" parent="1" source="sPuBu1B0uV8ggdlzg5T8-9" target="sPuBu1B0uV8ggdlzg5T8-5">
          <mxGeometry width="50" height="50" relative="1" as="geometry">
            <mxPoint x="524" y="475" as="sourcePoint" />
            <mxPoint x="540" y="490" as="targetPoint" />
          </mxGeometry>
        </mxCell>
        <mxCell id="sPuBu1B0uV8ggdlzg5T8-68" value="" style="endArrow=classic;html=1;rounded=0;exitX=1;exitY=0.5;exitDx=0;exitDy=0;entryX=-0.004;entryY=0.782;entryDx=0;entryDy=0;strokeColor=#FFFFFF;entryPerimeter=0;edgeStyle=orthogonalEdgeStyle;curved=1;" edge="1" parent="1" source="sPuBu1B0uV8ggdlzg5T8-8" target="sPuBu1B0uV8ggdlzg5T8-5">
          <mxGeometry width="50" height="50" relative="1" as="geometry">
            <mxPoint x="70" y="200" as="sourcePoint" />
            <mxPoint x="63" y="720" as="targetPoint" />
          </mxGeometry>
        </mxCell>
        <mxCell id="sPuBu1B0uV8ggdlzg5T8-69" value="" style="endArrow=classic;html=1;rounded=0;entryX=0.744;entryY=1.027;entryDx=0;entryDy=0;strokeColor=#FFFFFF;exitX=0.727;exitY=-0.002;exitDx=0;exitDy=0;exitPerimeter=0;entryPerimeter=0;" edge="1" parent="1" source="sPuBu1B0uV8ggdlzg5T8-41" target="sPuBu1B0uV8ggdlzg5T8-38">
          <mxGeometry width="50" height="50" relative="1" as="geometry">
            <mxPoint x="70" y="280" as="sourcePoint" />
            <mxPoint x="70" y="319" as="targetPoint" />
          </mxGeometry>
        </mxCell>
        <mxCell id="sPuBu1B0uV8ggdlzg5T8-70" value="" style="endArrow=classic;html=1;rounded=0;entryX=0.5;entryY=0;entryDx=0;entryDy=0;strokeColor=#FFFFFF;exitX=0;exitY=0.5;exitDx=0;exitDy=0;edgeStyle=orthogonalEdgeStyle;curved=1;" edge="1" parent="1" source="sPuBu1B0uV8ggdlzg5T8-38" target="sPuBu1B0uV8ggdlzg5T8-40">
          <mxGeometry width="50" height="50" relative="1" as="geometry">
            <mxPoint x="70" y="280" as="sourcePoint" />
            <mxPoint x="70" y="319" as="targetPoint" />
            <Array as="points">
              <mxPoint x="-203" y="240" />
            </Array>
          </mxGeometry>
        </mxCell>
        <mxCell id="sPuBu1B0uV8ggdlzg5T8-71" value="" style="endArrow=classic;html=1;rounded=0;entryX=1;entryY=0.5;entryDx=0;entryDy=0;strokeColor=#FFFFFF;exitX=0.5;exitY=0;exitDx=0;exitDy=0;edgeStyle=orthogonalEdgeStyle;curved=1;" edge="1" parent="1" source="sPuBu1B0uV8ggdlzg5T8-42" target="sPuBu1B0uV8ggdlzg5T8-38">
          <mxGeometry width="50" height="50" relative="1" as="geometry">
            <mxPoint x="-25" y="250" as="sourcePoint" />
            <mxPoint x="-193" y="320" as="targetPoint" />
            <Array as="points">
              <mxPoint x="527" y="240" />
            </Array>
          </mxGeometry>
        </mxCell>
        <mxCell id="sPuBu1B0uV8ggdlzg5T8-72" value="" style="endArrow=classic;html=1;rounded=0;strokeColor=#FFFFFF;exitX=0.25;exitY=1;exitDx=0;exitDy=0;" edge="1" parent="1" source="sPuBu1B0uV8ggdlzg5T8-39">
          <mxGeometry width="50" height="50" relative="1" as="geometry">
            <mxPoint x="70" y="280" as="sourcePoint" />
            <mxPoint x="60" y="210" as="targetPoint" />
          </mxGeometry>
        </mxCell>
        <mxCell id="sPuBu1B0uV8ggdlzg5T8-73" value="" style="endArrow=classic;html=1;rounded=0;strokeColor=#FFFFFF;exitX=0.742;exitY=1.025;exitDx=0;exitDy=0;entryX=0.743;entryY=-0.009;entryDx=0;entryDy=0;entryPerimeter=0;exitPerimeter=0;" edge="1" parent="1" source="sPuBu1B0uV8ggdlzg5T8-39" target="sPuBu1B0uV8ggdlzg5T8-38">
          <mxGeometry width="50" height="50" relative="1" as="geometry">
            <mxPoint x="70" y="190" as="sourcePoint" />
            <mxPoint x="70" y="220" as="targetPoint" />
          </mxGeometry>
        </mxCell>
        <mxCell id="sPuBu1B0uV8ggdlzg5T8-74" value="" style="endArrow=classic;html=1;rounded=0;strokeColor=#FFFFFF;exitX=0;exitY=0.5;exitDx=0;exitDy=0;entryX=0;entryY=0.5;entryDx=0;entryDy=0;edgeStyle=orthogonalEdgeStyle;curved=1;" edge="1" parent="1" source="sPuBu1B0uV8ggdlzg5T8-39" target="sPuBu1B0uV8ggdlzg5T8-37">
          <mxGeometry width="50" height="50" relative="1" as="geometry">
            <mxPoint x="70" y="190" as="sourcePoint" />
            <mxPoint x="70" y="220" as="targetPoint" />
            <Array as="points">
              <mxPoint x="-80" y="150" />
              <mxPoint x="-80" y="365" />
            </Array>
          </mxGeometry>
        </mxCell>
        <mxCell id="sPuBu1B0uV8ggdlzg5T8-75" value="" style="endArrow=none;html=1;rounded=0;strokeColor=#FFFFFF;exitX=1;exitY=0.5;exitDx=0;exitDy=0;entryX=1;entryY=0.5;entryDx=0;entryDy=0;edgeStyle=orthogonalEdgeStyle;curved=1;startArrow=classic;startFill=1;endFill=0;" edge="1" parent="1" source="sPuBu1B0uV8ggdlzg5T8-39" target="sPuBu1B0uV8ggdlzg5T8-37">
          <mxGeometry width="50" height="50" relative="1" as="geometry">
            <mxPoint x="257" y="192" as="sourcePoint" />
            <mxPoint x="257" y="219" as="targetPoint" />
            <Array as="points">
              <mxPoint x="390" y="150" />
              <mxPoint x="390" y="365" />
            </Array>
          </mxGeometry>
        </mxCell>
      </root>
    </mxGraphModel>
  </diagram>
</mxfile>
